<svg width="119" height="47" viewBox="0 0 119 47" fill="none" xmlns="http://www.w3.org/2000/svg">
<path d="M115.771 9.40106L59.1299 46.7175L2.48888 9.40106C0.950156 8.38396 0.10902 7.01934 0.150513 5.60737C0.192006 4.1954 1.11273 2.85176 2.71014 1.87202C4.30754 0.892296 6.45078 0.356731 8.66836 0.383152C10.8859 0.409569 12.9962 0.995808 14.5349 2.0129L59.1299 31.409L103.774 2.0129C105.313 0.995808 107.423 0.409569 109.641 0.383152C111.858 0.356731 114.001 0.892296 115.599 1.87202C117.196 2.85176 118.117 4.1954 118.158 5.60737C118.2 7.01934 117.359 8.38396 115.82 9.40106H115.771Z" fill="white"/>
</svg>
