<svg width="55" height="61" viewBox="0 0 55 61" fill="none" xmlns="http://www.w3.org/2000/svg">
<path d="M39.7222 12.2V30.5C39.7222 33.855 42.4722 36.6 45.8333 36.6H48.8889V57.95C48.8889 59.6275 50.2639 61 51.9444 61C53.625 61 55 59.6275 55 57.95V3.4465C55 1.464 53.1361 2.72691e-07 51.2111 0.4575C44.6111 2.074 39.7222 7.6555 39.7222 12.2ZM24.4444 21.35H18.3333V3.05C18.3333 1.3725 16.9583 0 15.2778 0C13.5972 0 12.2222 1.3725 12.2222 3.05V21.35H6.11111V3.05C6.11111 1.3725 4.73611 0 3.05556 0C1.375 0 0 1.3725 0 3.05V21.35C0 28.0905 5.46944 33.55 12.2222 33.55V57.95C12.2222 59.6275 13.5972 61 15.2778 61C16.9583 61 18.3333 59.6275 18.3333 57.95V33.55C25.0861 33.55 30.5556 28.0905 30.5556 21.35V3.05C30.5556 1.3725 29.1806 0 27.5 0C25.8194 0 24.4444 1.3725 24.4444 3.05V21.35Z" fill="white"/>
</svg>
