<svg width="58" height="61" viewBox="0 0 58 61" fill="none" xmlns="http://www.w3.org/2000/svg">
<path d="M22.3077 58.8216V43.5508C22.3077 42.4833 23.4231 41.3941 24.5385 41.3941H33.4615C34.5769 41.3941 35.6923 42.4833 35.6923 43.5725V58.8216C35.6923 59.3993 35.9273 59.9534 36.3457 60.3619C36.764 60.7705 37.3314 61 37.9231 61H55.7692C56.3609 61 56.9283 60.7705 57.3466 60.3619C57.765 59.9534 58 59.3993 58 58.8216V28.3235C58.0005 28.0372 57.9433 27.7537 57.8315 27.489C57.7197 27.2244 57.5556 26.9839 57.3486 26.7812L51.3077 20.8863V6.53919C51.3077 5.96144 51.0727 5.40734 50.6543 4.99881C50.236 4.59027 49.6686 4.36076 49.0769 4.36076H44.6154C44.0237 4.36076 43.4563 4.59027 43.038 4.99881C42.6196 5.40734 42.3846 5.96144 42.3846 6.53919V12.1726L30.5794 0.639996C30.3722 0.437127 30.126 0.276172 29.855 0.166351C29.584 0.0565294 29.2934 0 29 0C28.7066 0 28.416 0.0565294 28.145 0.166351C27.874 0.276172 27.6278 0.437127 27.4206 0.639996L0.651388 26.7812C0.444365 26.9839 0.280278 27.2244 0.168509 27.489C0.0567394 27.7537 -0.000519991 28.0372 3.55806e-06 28.3235V58.8216C3.55806e-06 59.3993 0.23503 59.9534 0.653381 60.3619C1.07173 60.7705 1.63914 61 2.23077 61H20.0769C20.6686 61 21.236 60.7705 21.6543 60.3619C22.0727 59.9534 22.3077 59.3993 22.3077 58.8216Z" fill="white"/>
</svg>
