<svg width="87" height="61" viewBox="0 0 87 61" fill="none" xmlns="http://www.w3.org/2000/svg">
<path d="M0 0L8.74163 5.71875C8.74163 21.5406 17.1783 35.38 29.7378 43.0812V61H87V53.375C87 43.2337 66.6528 38.125 56.4601 38.125H55.5058C37.3727 38.125 22.1028 22.875 22.1028 5.71875L32.0526 0H22.1028H8.74163H0ZM56.4601 0C52.4103 0 48.5263 1.60669 45.6627 4.46662C42.799 7.32655 41.1902 11.2054 41.1902 15.25C41.1902 19.2946 42.799 23.1734 45.6627 26.0334C48.5263 28.8933 52.4103 30.5 56.4601 30.5C60.51 30.5 64.3939 28.8933 67.2576 26.0334C70.1213 23.1734 71.7301 19.2946 71.7301 15.25C71.7301 11.2054 70.1213 7.32655 67.2576 4.46662C64.3939 1.60669 60.51 0 56.4601 0Z" fill="white"/>
</svg>
